<?xml version="1.0" encoding="UTF-8" standalone="no"?>
<!-- Created with Inkscape (http://www.inkscape.org/) -->

<svg
   xmlns:dc="http://purl.org/dc/elements/1.1/"
   xmlns:cc="http://creativecommons.org/ns#"
   xmlns:rdf="http://www.w3.org/1999/02/22-rdf-syntax-ns#"
   xmlns:svg="http://www.w3.org/2000/svg"
   xmlns="http://www.w3.org/2000/svg"
   xmlns:sodipodi="http://sodipodi.sourceforge.net/DTD/sodipodi-0.dtd"
   xmlns:inkscape="http://www.inkscape.org/namespaces/inkscape"
   width="188.27567mm"
   height="20.941698mm"
   viewBox="0 0 188.27567 20.941698"
   version="1.1"
   id="svg8"
   inkscape:version="0.92.4 (5da689c313, 2019-01-14)"
   sodipodi:docname="bryce-st-pierre-handwritten.svg"
   inkscape:export-filename="C:\Users\bryce\Google Drive\brycestpierre.com\bryce-st-pierre-handwritten.png"
   inkscape:export-xdpi="37.71106"
   inkscape:export-ydpi="37.71106">
  <title
     id="title1014">Bryce St. Pierre - Handwritten</title>
  <defs
     id="defs2" />
  <sodipodi:namedview
     id="base"
     pagecolor="#ffffff"
     bordercolor="#666666"
     borderopacity="1.0"
     inkscape:pageopacity="0.0"
     inkscape:pageshadow="2"
     inkscape:zoom="0.98994949"
     inkscape:cx="47.828878"
     inkscape:cy="-63.846169"
     inkscape:document-units="mm"
     inkscape:current-layer="svg8"
     showgrid="false"
     inkscape:window-width="1920"
     inkscape:window-height="1017"
     inkscape:window-x="-8"
     inkscape:window-y="-8"
     inkscape:window-maximized="1"
     fit-margin-top="0"
     fit-margin-right="0"
     fit-margin-bottom="0"
     fit-margin-left="0" />
  <metadata
     id="metadata5">
    <rdf:RDF>
      <cc:Work
         rdf:about="">
        <dc:format>image/svg+xml</dc:format>
        <dc:type
           rdf:resource="http://purl.org/dc/dcmitype/StillImage" />
        <dc:title>Bryce St. Pierre - Handwritten</dc:title>
      </cc:Work>
    </rdf:RDF>
  </metadata>
  <path
     style="fill:#000000;stroke-width:0.40283123"
     d="m 178.90784,17.246596 c -0.14626,-0.236662 -0.59777,-0.430294 -1.00334,-0.430294 -1.04301,0 -3.45497,-2.324011 -4.38982,-4.229729 -0.51511,-1.050052 -0.88583,-2.925127 -1.06428,-5.383049 l -0.27385,-3.7717234 1.74584,0.269135 c 2.22511,0.343021 6.05212,0.368121 8.42631,0.05527 1.49365,-0.196824 1.9766,-0.09954 2.5274,0.509079 0.3745,0.41382 0.5743,1.0302164 0.444,1.3697674 -0.26705,0.695913 -2.79323,1.503622 -5.28364,1.689364 -0.91311,0.0681 -1.86164,0.248321 -2.10785,0.400485 -0.24621,0.152164 -0.59264,0.187053 -0.76986,0.07753 -0.1772,-0.109523 -0.53921,0.148371 -0.80446,0.573097 -0.41624,0.6665 -0.3555,0.804049 0.44363,1.004616 0.84099,0.211078 8.31562,-1.116506 9.13405,-1.622319 0.18902,-0.116822 0.81046,-0.03493 1.38098,0.18198 0.77824,0.295888 1.01625,0.648728 0.95302,1.412791 -0.0517,0.624608 -0.3307,1.018408 -0.72152,1.018408 -0.35048,0 -0.80945,0.160828 -1.01992,0.357396 -0.40986,0.382771 -4.50935,1.42408 -7.34902,1.866722 -1.42554,0.22221 -1.64698,0.369057 -1.25987,0.835479 0.73348,0.883794 2.75101,0.694543 3.62977,-0.340486 l 0.76953,-0.90637 0.80566,0.950997 c 0.44311,0.523049 0.80566,1.159361 0.80566,1.414025 0,0.770167 -1.9947,2.670368 -2.80318,2.670368 -0.41602,0 -1.02481,0.102996 -1.35286,0.228878 -0.32804,0.125883 -0.71611,0.03525 -0.86238,-0.201414 z"
     id="path927"
     inkscape:connector-curvature="0"
     inkscape:label="E" />
  <path
     style="fill:#000000;stroke-width:0.37103838"
     d="m 163.53831,3.0826126 c -0.51407,-0.01056 -0.86798,0.248779 -1.52715,0.970478 -0.57503,0.629585 -1.13413,1.1399924 -1.24244,1.1342624 -0.1083,-0.0057 -0.33739,-0.0102 -0.5087,-0.0102 -1.27728,0 -1.3313,6.037869 -0.0838,9.334837 0.98486,2.60263 1.46618,3.047917 2.76192,2.555281 1.07768,-0.409729 1.16846,-0.828631 0.55871,-2.577728 -0.22766,-0.653084 -0.31513,-1.286507 -0.1944,-1.407244 0.51228,-0.512281 5.74998,1.824454 7.14592,3.187978 0.79177,0.773387 1.66202,1.348834 1.93379,1.278661 0.2718,-0.07017 0.64739,-0.127559 0.83477,-0.127559 0.18739,0 0.34084,-0.542975 0.34083,-1.206208 -1e-5,-1.439929 -1.28516,-2.599225 -4.88095,-4.402859 -1.29476,-0.64945 -2.40551,-1.220973 -2.46804,-1.269988 -0.0625,-0.049 0.15479,-0.909361 0.48269,-1.911869 0.44074,-1.347448 0.49801,-2.059419 0.21942,-2.730802 -0.58924,-1.4199744 -1.62488,-2.4317454 -2.78796,-2.7236624 -0.22412,-0.05625 -0.41338,-0.08987 -0.58474,-0.09338 z m 0.21327,3.9497664 c 0.10202,0 0.007,0.333749 -0.21174,0.74189 -0.21843,0.408144 -0.48067,0.741889 -0.58269,0.741889 -0.10202,0 -0.007,-0.333745 0.21175,-0.741889 0.21843,-0.408141 0.48064,-0.74189 0.58268,-0.74189 z"
     id="path941-5-7"
     inkscape:connector-curvature="0"
     inkscape:label="R" />
  <path
     style="fill:#000000;stroke-width:0.36418623"
     d="m 150.09224,3.0988226 c -0.50458,-0.01036 -0.85195,0.244184 -1.49895,0.952555 -0.56442,0.617958 -1.11318,1.1189394 -1.21949,1.1133154 -0.10631,-0.0056 -0.33117,-0.01001 -0.49931,-0.01001 -1.25369,0 -1.30672,5.926365 -0.0822,9.162447 0.96667,2.554565 1.4391,2.991629 2.71091,2.508091 1.05778,-0.402163 1.14688,-0.813329 0.5484,-2.530124 -0.22347,-0.641024 -0.30932,-1.262749 -0.19082,-1.381255 0.50282,-0.502822 5.6438,1.79076 7.01395,3.129103 0.77715,0.759104 1.63133,1.323924 1.89809,1.255048 0.26677,-0.06888 0.63542,-0.125204 0.81935,-0.125204 0.18392,0 0.33455,-0.532947 0.33453,-1.183932 -1e-5,-1.413337 -1.26143,-2.551224 -4.79081,-4.32155 -1.27085,-0.637455 -2.36109,-1.198424 -2.42246,-1.246534 -0.0614,-0.0481 0.15193,-0.892567 0.47378,-1.876562 0.43259,-1.322564 0.48881,-2.021386 0.21536,-2.680371 -0.57835,-1.3937504 -1.59487,-2.3868364 -2.73647,-2.6733624 -0.21998,-0.05521 -0.40575,-0.08821 -0.57394,-0.09165 z m 0.20933,3.8768234 c 0.10013,0 0.007,0.327585 -0.20783,0.728189 -0.2144,0.400607 -0.47179,0.728189 -0.57193,0.728189 -0.10013,0 -0.007,-0.327582 0.20783,-0.728189 0.21441,-0.400604 0.47178,-0.728189 0.57193,-0.728189 z"
     id="path941-5"
     inkscape:connector-curvature="0"
     inkscape:label="R" />
  <path
     style="fill:#000000;stroke-width:0.43229014"
     d="m 134.76838,16.136869 c -3.17957,-0.872711 -3.99282,-2.37285 -4.27265,-7.881455 -0.2041,-4.0176174 -0.31707,-3.8798864 3.00964,-3.6695204 0.71329,0.04511 2.71994,-0.218412 4.45924,-0.585593 5.24629,-1.107537 6.56417,-0.861352 6.56417,1.2262164 0,0.640927 -1.95166,1.356419 -5.37006,1.968706 -2.8654,0.513236 -4.90614,1.596641 -4.24772,2.25506 0.26824,0.268237 1.79046,0.177136 4.26104,-0.25501 5.31626,-0.929906 6.6536,-0.895897 6.6536,0.169205 0,0.535817 -0.51332,1.073234 -1.40494,1.470885 -1.29671,0.57832 -5.85909,1.806467 -7.8893,2.123721 -0.83539,0.130544 -0.8338,0.143556 0.0472,0.385439 0.50146,0.137684 1.64313,-0.0011 2.53705,-0.308419 1.76703,-0.607479 2.62152,-0.467712 2.98858,0.488836 0.41303,1.076338 -0.17408,1.796302 -2.04863,2.512198 -2.04473,0.780891 -2.75655,0.794318 -5.28716,0.09972 z"
     id="path826"
     inkscape:connector-curvature="0"
     inkscape:label="E" />
  <path
     style="fill:#000000;stroke-width:0.37578282"
     d="m 126.78818,16.408198 c -0.72116,-0.527327 -1.1586,-2.179922 -1.56386,-5.908131 -0.14604,-1.343423 -0.5144,-2.928162 -0.81859,-3.521642 -0.36075,-0.703827 -0.46731,-1.536195 -0.30645,-2.3936754 0.23903,-1.274122 0.28926,-1.3078 1.63034,-1.093127 2.1792,0.348835 2.56539,1.132463 2.63265,5.3420184 0.0408,2.553659 0.23071,3.928195 0.62611,4.53164 1.5014,2.291428 -0.13425,4.553572 -2.2002,3.042917 z"
     id="path931"
     inkscape:connector-curvature="0"
     inkscape:label="I" />
  <path
     style="fill:#000000;stroke-width:0.41268402"
     d="m 116.78773,0.01184557 c -0.75092,-0.06578 -1.17992,0.137142 -1.91724,0.740876 -1.5056,1.23280303 -2.34443,3.76143403 -2.16913,6.54025543 0.11288,1.789161 0.0151,2.226627 -0.53566,2.400065 -0.97528,0.307151 -0.91111,1.635023 0.14808,3.062913 0.5423,0.731117 1.04127,2.228086 1.21422,3.644628 0.29121,2.385097 0.4633,2.935878 1.23312,3.948272 0.5257,0.691371 2.03161,0.793086 2.60295,0.175687 0.47519,-0.513478 0.33176,-3.400282 -0.31672,-6.381825 -0.31902,-1.466771 -0.26414,-1.671058 0.58588,-2.180926 0.51587,-0.30944 1.98377,-1.44701 3.26186,-2.527824 1.70453,-1.441437 2.34237,-2.266591 2.39333,-3.096835 0.15456,-2.5182104 -2.55389,-5.49410643 -5.61952,-6.17454743 -0.34521,-0.07662 -0.63082,-0.128818 -0.88113,-0.150744 z m 0.72001,3.46134603 c 0.61772,0.0054 1.53095,0.618204 1.82192,1.376912 0.30455,0.7940774 0.15619,1.2078494 -0.85004,2.3716744 -1.80242,2.0847 -2.3808,1.820359 -2.01148,-0.919473 0.16763,-1.243927 0.41687,-2.4208584 0.55396,-2.6150024 0.10632,-0.150446 0.27973,-0.2159 0.48564,-0.214111 z"
     id="path945"
     inkscape:connector-curvature="0"
     inkscape:label="P" />
  <path
     style="fill:#000000;stroke-width:0.37643465"
     d="m 101.73717,16.878375 c -0.2588,-0.419301 -0.47055,-1.180478 -0.47055,-1.691504 0,-0.763453 0.23444,-0.973117 1.31469,-1.175773 2.06072,-0.386595 2.51131,-0.04374 2.37736,1.808925 -0.11098,1.534993 -0.17205,1.607923 -1.43343,1.712006 -0.99188,0.08184 -1.43383,-0.07971 -1.78807,-0.653654 z"
     id="path919"
     inkscape:connector-curvature="0"
     inkscape:label="." />
  <path
     style="fill:#000000;stroke-width:0.40430176"
     d="m 94.092145,16.666651 c -0.28189,-0.518577 -0.44468,-1.935427 -0.36172,-3.148558 0.0833,-1.213105 -0.0108,-2.730959 -0.20717,-3.37295 -0.19691,-0.641993 -0.24271,-1.325239 -0.10184,-1.518327 0.1423,-0.194982 -0.65862,-0.415648 -1.80142,-0.496321 C 89.058286,7.94966 88.061772,7.298448 88.40377,6.028714 c 0.327802,-1.2170264 0.775163,-1.4209624 3.020565,-1.3769714 1.01906,0.01996 4.014105,-0.359277 6.655625,-0.842762 5.28233,-0.966839 6.53348,-0.841452 6.42615,0.644002 -0.038,0.525556 -0.11518,0.9587604 -0.17155,0.9626804 -0.0564,0.004 -1.69083,0.407339 -3.63221,0.896483 -3.47809,0.876333 -3.53306,0.909848 -3.75442,2.289354 -0.12356,0.770001 0.0172,2.781464 0.31285,4.46992 0.64725,3.696708 0.32082,4.748244 -1.43553,4.624259 -0.82424,-0.05819 -1.387092,-0.392359 -1.733195,-1.029032 z"
     id="path929"
     inkscape:connector-curvature="0"
     inkscape:label="T" />
  <path
     style="fill:#000000;stroke-width:0.46107519"
     d="m 81.394097,19.796014 c -0.507183,-0.12356 -1.285248,-0.546617 -1.729033,-0.940126 -0.443785,-0.393511 -0.806881,-0.577898 -0.806881,-0.409751 0,0.168147 -0.985549,-0.385816 -2.190107,-1.231031 -2.465627,-1.73008 -3.159295,-3.706391 -1.680462,-4.787742 1.380628,-1.009541 2.339643,-0.688916 3.16937,1.059607 1.686687,3.554427 8.944805,4.620435 8.993492,1.320884 0.01017,-0.692324 -2.41227,-3.388354 -3.182044,-3.541357 -0.359252,-0.07141 -1.033574,-0.492925 -1.498495,-0.93671 -0.464916,-0.443786 -1.188462,-0.806882 -1.607875,-0.806882 -0.419418,0 -2.041023,-0.714951 -3.603575,-1.588778 C 74.917125,6.624763 74.325228,6.044746 73.8929,4.6360886 c -0.846607,-2.7585 -0.267279,-3.277476 3.916815,-3.508776 5.338892,-0.29513503 6.970582,0.583128 6.244173,3.360937 C 83.861545,5.223767 83.575803,5.373901 82.829096,5.131788 81.058152,4.5575796 78.858086,4.3437526 78.864241,4.7464416 c 0.0032,0.217937 1.300107,1.0134974 2.88172,1.7679114 4.009865,1.912665 5.898645,3.241689 7.371146,5.186644 3.697168,4.883418 -0.942726,9.746817 -7.72301,8.095017 z"
     id="path935"
     inkscape:connector-curvature="0"
     inkscape:label="S" />
  <path
     style="fill:#000000;stroke-width:0.37578282"
     d="M 57.547089,16.663402 C 56.107991,16.228169 55.20376,15.172238 54.203449,12.758808 53.417127,10.861666 53.370981,10.475917 53.791298,9.313552 54.194874,8.19748 54.177881,7.917904 53.675944,7.415967 53.084218,6.824241 52.842747,4.6276006 53.369114,4.6247736 c 0.15501,-8.26e-4 2.376781,-0.348134 4.937267,-0.771781 2.560482,-0.423648 4.885639,-0.681928 5.167013,-0.573955 0.726287,0.278703 0.634171,1.8789504 -0.146036,2.5369204 -0.361691,0.305024 -1.968163,0.852962 -3.569937,1.217639 -2.967575,0.675631 -3.139496,0.786136 -2.584634,1.661341 0.246825,0.389324 0.637083,0.412364 1.779215,0.105038 0.804671,-0.216522 2.679925,-0.506656 4.167232,-0.644742 2.693127,-0.250038 2.705212,-0.24701 2.952845,0.739633 0.394489,1.571767 -0.01394,2.047893 -1.971266,2.297924 -0.993773,0.126946 -2.629514,0.47699 -3.634977,0.777874 -1.005467,0.300883 -2.076448,0.547061 -2.379961,0.547061 -0.890458,0 -0.345667,0.862043 0.782436,1.238077 0.841359,0.280453 1.197782,0.194339 1.890955,-0.456865 1.145904,-1.07652 2.100122,-0.686157 2.09261,0.85607 -0.0068,1.391412 -0.269376,1.856157 -1.378728,2.440073 -0.924325,0.486527 -2.455177,0.513167 -3.926059,0.06832 z"
     id="path933"
     inkscape:connector-curvature="0"
     inkscape:label="E" />
  <path
     style="fill:#000000;stroke-width:0.44047293"
     d="m 46.54401,17.379422 c -0.115656,-0.115656 -0.594665,-0.272157 -1.064474,-0.347787 -1.274076,-0.205101 -2.120802,-0.834819 -3.099343,-2.305011 -1.790403,-2.689958 -1.119175,-6.81676 1.551971,-9.541737 2.605212,-2.6577134 5.318138,-2.2409864 5.318138,0.816906 0,1.236606 -0.238503,1.564089 -1.619993,2.224388 -1.767808,0.844945 -2.610115,2.518162 -2.163485,4.297687 0.397862,1.585207 2.756969,1.904329 5.229484,0.707404 2.695514,-1.304877 3.036396,-1.220658 2.875196,0.710354 -0.17692,2.119276 -2.26122,3.648072 -4.973639,3.648072 -1.013964,0 -1.9382,-0.09463 -2.053855,-0.210276 z"
     id="path937"
     inkscape:connector-curvature="0"
     inkscape:label="C" />
  <path
     style="fill:#000000;stroke-width:0.35521123"
     d="m 36.459647,18.024051 c -0.387129,-0.634941 -0.704471,-1.581817 -0.7052,-2.104169 -0.0027,-1.967542 -0.81179,-4.556043 -1.423999,-4.556043 -0.324627,0 -1.183686,-0.519496 -1.909019,-1.154436 -1.724538,-1.509624 -2.534706,-4.245234 -1.847547,-6.2384204 0.567144,-1.645072 1.679185,-1.925096 2.524098,-0.635595 0.39864,0.608401 0.511194,1.238951 0.35119,1.9674424 -0.455747,2.074998 0.444792,3.148222 2.11032,2.514989 1.146672,-0.435964 1.615142,-2.576205 0.768642,-3.5115774 -0.737419,-0.814839 -0.733969,-1.698427 0.0082,-2.113796 0.863191,-0.483064 1.706644,-0.137556 2.358638,0.966179 1.164673,1.9716364 1.060224,4.3966744 -0.315876,7.3335754 -0.449032,0.958343 -0.428949,1.462476 0.175713,4.410466 0.37548,1.830643 0.600897,3.541603 0.500922,3.802132 -0.354868,0.924768 -1.857463,0.530763 -2.596137,-0.680747 z"
     id="path947"
     inkscape:connector-curvature="0"
     inkscape:label="Y" />
  <path
     style="fill:#000000;stroke-width:0.37578282"
     d="M 22.915418,3.067756 C 22.394779,3.05712 22.03634,3.3197161 21.368741,4.0506434 20.786351,4.6882786 20.220113,5.205211 20.11042,5.199409 c -0.109691,-0.0058 -0.341707,-0.01034 -0.515213,-0.01034 -1.293611,0 -1.348317,6.115076 -0.08475,9.454202 0.997458,2.635909 1.484945,3.086891 2.797244,2.587956 1.091454,-0.41497 1.183394,-0.839227 0.565856,-2.610692 -0.230579,-0.661434 -0.319166,-1.302956 -0.196887,-1.425236 0.518832,-0.518832 5.823506,1.847781 7.237286,3.228742 0.801888,0.783275 1.683282,1.366081 1.958536,1.295011 0.275256,-0.07108 0.65565,-0.129191 0.845428,-0.129191 0.189775,0 0.345205,-0.549918 0.345197,-1.221631 -1.4e-5,-1.458341 -1.301605,-2.632461 -4.943367,-4.459158 -1.31132,-0.657754 -2.43627,-1.236586 -2.49959,-1.286227 -0.06332,-0.04964 0.156763,-0.920988 0.48886,-1.936316 C 26.555385,7.321851 26.613387,6.600776 26.331228,5.920808 25.734465,4.4826711 24.685588,3.4579637 23.507629,3.162313 23.280643,3.105346 23.088963,3.071291 22.915417,3.067746 Z m 0.216006,4.000272 c 0.103341,0 0.0068,0.338016 -0.214455,0.751377 -0.221226,0.413361 -0.486807,0.751374 -0.590146,0.751374 -0.10334,0 -0.0068,-0.338013 0.214456,-0.751374 0.221226,-0.413361 0.486804,-0.751377 0.590145,-0.751377 z"
     id="path941"
     inkscape:connector-curvature="0"
     inkscape:label="R" />
  <path
     style="fill:#000000;stroke-width:0.37578282"
     d="m 6.703488,0.27361257 c -0.09452,-0.0024 -0.18874,-0.0016 -0.282154,0.0026 -0.896771,0.04008 -1.734889,0.385088 -2.3652299,1.06091703 -0.530116,0.568372 -1.162261,1.418471 -1.404565,1.889289 -0.242304,0.47082 -0.602307,0.756023 -0.800468,0.633552 C 1.1537971,3.4290306 -0.00567877,4.1006546 2.0934864e-5,4.9322586 0.00590093,5.78488 0.71845813,8.037921 1.2397381,8.851398 c 0.33851,0.528257 0.57711,1.439016 0.98547,3.762561 0.154724,0.880374 0.391575,1.710875 0.526066,1.845365 0.13449,0.134491 -0.09283,0.480854 -0.504879,0.769461 -0.868448,0.608288 -0.93292,1.170533 -0.279052,2.42311 0.749619,1.435997 1.979712,2.582177 3.1465779,2.931605 0.594547,0.178038 2.227788,0.338288 3.629752,0.356049 1.987958,0.02519 2.939366,-0.165618 4.3217,-0.866613 2.297905,-1.165291 2.933988,-1.909742 3.475757,-4.065387 0.398859,-1.587013 0.360444,-1.94446 -0.372587,-3.458702 -0.449628,-0.928809 -1.144549,-1.792454 -1.544092,-1.919263 -0.399543,-0.12681 -0.726054,-0.380402 -0.726054,-0.56379 0,-0.183386 -0.55787,-0.438037 -1.239201,-0.565857 L 11.420512,9.267392 11.438082,6.382815 C 11.452142,4.0642186 11.308324,3.3013036 10.704277,2.4962316 9.644494,1.0837536 8.121296,0.30981857 6.703488,0.27362857 Z M 7.334457,3.1819616 c 0.07085,0.0011 0.139818,0.0098 0.207222,0.02739 1.705176,0.445913 1.683378,3.1493164 -0.04031,4.9945264 -1.737432,1.859925 -2.603805,1.2759 -2.616895,-1.76475 -0.0064,-1.4854284 1.387173,-3.2720224 2.44998,-3.2571654 z m 3.574975,8.9048814 c 0.8531,-0.0163 1.650534,0.274688 2.306319,0.868164 1.492298,1.350513 0.193938,3.539797 -2.839619,4.787824 -1.618285,0.665771 -4.369243,0.805965 -4.369243,0.222723 0,-0.206679 0.16571,-0.375687 0.368453,-0.375687 0.686767,0 0.81664,-1.765173 0.232544,-3.163115 C 6.05394,13.100975 6.059342,13.046434 6.73191,13.2599 c 0.399109,0.126672 1.322925,-0.123021 2.127002,-0.574643 0.689616,-0.387334 1.386999,-0.585732 2.05052,-0.598414 z"
     id="path953"
     inkscape:connector-curvature="0"
     inkscape:label="B" />
</svg>
